PathFileType	4	(X/Y/Z)	Patient4_TMGait_0pt7_02_left_15.trc.trc
DataRate	CameraRate	NumFrames	NumMarkers	Units	OrigDataRate	OrigDataStartFrame	OrigNumFrames
83.832335329341	83.832335329341	6	33	mm	83.832335329341	71	       141
Frame#	Time	Sacral			L.Shoulder			Chest			R.Shoulder			Neck			R.ASIS			L.ASIS			R.Thigh.Superior			R.Thigh.Lateral			R.Thigh.Inferior			R.Patella			L.Thigh.Superior			L.Thigh.Lateral			L.Thigh.Inferior			L.Patella			L.Shank.Superior			L.Shank.Lateral			L.Shank.Inferior			R.Shank.Superior			R.Shank.Lateral			R.Shank.Inferior			R.Heel			R.Midfoot.Superior			R.Midfoot.Lateral			R.Toe			L.Heel			L.Midfoot.Lateral			L.Midfoot.Superior			L.Toe			L.Elbow			L.Wrist			R.Elbow			R.Wrist			
		X1	Y1	Z1	X2	Y2	Z2	X3	Y3	Z3	X4	Y4	Z4	X5	Y5	Z5	X6	Y6	Z6	X7	Y7	Z7	X8	Y8	Z8	X9	Y9	Z9	X10	Y10	Z10	X11	Y11	Z11	X12	Y12	Z12	X13	Y13	Z13	X14	Y14	Z14	X15	Y15	Z15	X16	Y16	Z16	X17	Y17	Z17	X18	Y18	Z18	X19	Y19	Z19	X20	Y20	Z20	X21	Y21	Z21	X22	Y22	Z22	X23	Y23	Z23	X24	Y24	Z24	X25	Y25	Z25	X26	Y26	Z26	X27	Y27	Z27	X28	Y28	Z28	X29	Y29	Z29	X30	Y30	Z30	X31	Y31	Z31	X32	Y32	Z32	X33	Y33	Z33	

71	17.675000000000	781.005001761106	1004.431767670460	442.043597290525	985.486773644875	1425.756202157524	263.336061291638	1080.525673262680	1347.529863121204	426.458317901774	997.132757057483	1428.445579516666	597.443048432117	984.816346289663	1485.088307589881	416.936104778130	1006.641221167538	931.779964066444	560.638389685256	993.403635456486	955.647369528023	285.542066180896	1080.089337162223	769.139444686068	532.557547774886	1046.863012390335	646.924205690594	612.176052963441	1135.547919536417	611.501826877420	530.641798943709	1174.184433939766	528.934345541073	550.939442596217	992.261973036963	729.731463666831	310.577541153446	868.207478208098	638.454243977606	256.481928724075	930.402040156156	543.174664476505	315.185193843684	915.103765023463	478.126140070718	325.929153949946	882.670097261655	413.248152974680	321.365209132419	779.351954058236	306.758515660371	278.774006885680	825.633769288565	192.840305772958	350.876662686410	1157.707609222432	440.775655876501	562.022328343709	1105.352128347133	326.931018288411	626.264619294703	1175.775125112857	241.126207109284	575.671315744746	1086.719858577858	52.175969348078	547.797287748768	1248.072809387736	130.269267051769	589.594526075554	1170.827974698381	51.656206975321	620.895790490377	1372.789098655107	95.433037516900	616.120447519105	690.344618179373	40.715464504506	402.843294046627	762.994371907864	35.801329566104	321.535243076704	847.393704121939	95.871359892711	345.332553141542	974.817584287896	40.662980665852	316.614039857782	1073.112629905154	1121.036162887188	98.339999842560	1318.953774295630	1070.847283308026	151.887630157598	833.612890087266	1129.448989602981	715.757632258886	774.445082279220	877.869853267464	750.302773335490	
72	17.686928571429	782.514217712874	1002.433757082944	443.824482418145	985.661655796838	1424.174552427686	264.961681485695	1080.982197618001	1346.319478480427	428.067467008058	997.510994071847	1427.164016395017	599.033551576579	984.899044686225	1483.473241700096	418.522975044282	1008.584686848891	929.789266916166	562.179455635457	994.977920872852	954.137050332481	286.959291676672	1080.421982885759	765.049827612940	534.326965048538	1044.452962105990	642.643153396610	612.817982450728	1133.293596131650	606.859713921804	531.649859774940	1170.700249947314	525.247129568866	550.811981216514	991.514512980016	727.951499607791	312.053347753073	866.815622558363	637.751412220838	257.503416715328	927.774417633438	541.778893129964	316.411389407179	911.839104848769	476.633421159104	326.936909524990	878.493223676358	412.114749256159	322.203536081672	773.903458424984	306.944374356190	279.216257634660	818.604851522203	192.348881654599	351.130864744381	1155.963322415223	437.241132418340	561.453222870125	1105.232896272690	321.911645741354	624.224739158877	1177.909797614282	237.886019187558	573.563784622552	1092.422415237242	48.157770075497	544.350799093678	1252.861864357054	127.663108980094	586.259018321745	1176.500647085824	48.444832825527	617.351956108773	1377.955445034088	94.202721886163	612.608574782269	681.943656063598	40.936327190003	402.735397121160	754.637828940240	35.839555972130	321.522538328824	839.045288962291	95.871929873776	345.375128011650	966.453526770260	40.506201479868	316.615906481854	1073.221653973149	1119.922439285572	99.484749709820	1319.864497038741	1078.556583073942	154.364664367222	829.237943859523	1132.296647264730	718.329862399045	765.404857658874	881.914672003357	751.793466780687	
73	17.698857142857	784.228815960154	1000.417486181581	445.828805602808	985.867967405471	1422.571330439129	266.690302820729	1081.496085004808	1345.209942877104	429.821018858326	997.868107913090	1425.941231192236	600.752307535759	984.971173120968	1481.901958046296	420.222582002758	1010.700061696826	927.850438328470	563.952728246314	996.766750642914	952.624606097223	288.600941071037	1081.281966150252	761.243743019918	536.328217763182	1042.459241817982	638.535586647069	613.290927036716	1131.596632708735	602.609351860226	532.616059080927	1167.628866323130	521.565013571099	550.540515314597	991.255899602165	726.175144946958	313.666684868609	865.866235116936	637.034324207635	258.682341065944	925.651020274028	540.372740788480	317.746164851028	909.100306615810	475.076018702163	328.054802089945	874.756146932435	410.921300995312	323.129607161415	768.774004546647	307.224397787525	279.724034193903	811.726573605397	191.881449675954	351.378775435424	1154.064864933414	433.524100394645	560.701592794999	1104.038409163012	317.191396557187	621.927667805663	1178.182206616748	234.428576686512	571.244549138303	1094.525650473472	45.110165378384	540.830533183863	1254.738529170209	124.405823749186	582.653133970177	1178.518369533739	45.594484474989	613.783289575371	1379.813240611544	91.116171267805	608.908981439133	673.545390629884	41.299519380635	402.570480708861	746.309982301193	35.907909272582	321.479802354480	830.756579908143	95.903470488040	345.367618824428	958.132244280856	40.324692071151	316.607431096822	1072.796926793804	1118.410522067922	100.905271964760	1319.933578634876	1085.040535112519	156.833050484152	825.773387833716	1134.643266742583	720.857739490621	757.956419003806	885.239243771754	753.268587393918	
74	17.710785714286	786.126918584302	998.460071303094	448.054035612057	986.142531709206	1420.996890978801	268.529018606078	1082.098980115446	1344.228632638678	431.721369737010	998.248582614677	1424.803751296727	602.611899239075	985.086002085272	1480.428103144360	422.047532697948	1012.949051838548	926.025849365878	565.946222186936	998.718950717446	951.172528267708	290.469541685090	1082.659465354617	757.818703771471	538.510355662207	1040.939219909245	634.738171137824	613.608912368224	1130.488447911717	598.877434430711	533.520529550761	1165.052217175205	518.021667695498	550.119338612390	991.472979305703	724.455974697045	315.364383824737	865.345510354328	636.334461498474	260.016366461752	924.065780356585	538.989550365256	319.148684430494	906.933499968858	473.463944583984	329.237842601624	871.483912150543	409.690993269835	324.115370210348	763.973789077698	307.642302157781	280.297794966730	805.015765296662	191.472380515676	351.601295306131	1152.142094260976	429.766899174159	559.805340685524	1102.053193086123	312.869689649096	619.575201568908	1176.867746976330	230.838735135844	568.838230494449	1093.377081615604	42.924457521044	537.492499326136	1254.028971815028	120.625040895628	578.952357974800	1177.281441557859	43.114407689260	610.426125584183	1378.779255621649	86.435478629611	605.159090140263	665.153569957682	41.866194534361	402.340192297386	738.011331804668	36.024275910417	321.398115203682	822.554337174127	95.966085566528	345.285971407424	949.856429559632	40.127398247170	316.585377151419	1071.835774201778	1116.530524594036	102.611153413824	1319.247704693733	1090.228842836756	159.282451815688	823.272928093122	1136.391053257060	723.301902397348	752.099127641628	887.758670480579	754.749205278268	
75	17.722714285714	788.171026736615	996.650608770336	450.486201455579	986.524199082033	1419.514374865378	270.485836419368	1082.824723221041	1343.406028449710	433.767550394541	998.707732201526	1423.788123206782	604.622054114672	985.305590717352	1479.113452185963	424.009347627043	1015.289101117184	924.389252812428	568.138082045824	1000.773547382209	949.851697853082	292.562528639997	1084.513407925766	754.867638923439	540.808550927781	1039.939814864094	631.397321430711	613.824893929930	1129.965949590106	595.770866322001	534.362952408767	1163.014497663791	514.749414977425	549.583422184391	992.130762035688	722.861622654655	317.103088182503	865.246301148036	635.681748605062	261.498932311041	923.068345411499	537.667369495080	320.580600027371	905.403707219606	471.806360267292	330.432570959035	868.716759236145	408.450382788892	325.126347768214	759.524930851583	308.249775531529	280.937769170364	798.503682194209	191.164558642037	351.777842911364	1150.309311959509	426.133191556958	558.839380275661	1099.585366885909	309.059768031283	617.395064139595	1174.294705426297	227.253866375652	566.488351002918	1089.485815355469	41.485144612651	534.559337669290	1251.143661866116	116.545339896670	575.359068642064	1173.335654241625	41.025468827027	607.485031851994	1375.360305012054	80.605438220935	601.518542137277	656.779489252734	42.717546278996	402.039589918763	729.742859562040	36.219098924036	321.270511232922	814.474704720357	96.059749885699	345.104105907551	941.624076985767	39.923699733280	316.548319832155	1070.329437845293	1114.326267107226	104.618013521975	1317.883941564326	1094.062774858582	161.702323241480	821.782777559197	1137.479461257536	725.641872768002	747.867804124760	889.424904736957	756.235491295215	
76	17.734642857143	790.309905547842	995.084118230131	453.101434692625	987.047984702043	1418.197374928194	272.567966880442	1083.703993406293	1342.775899416103	435.953939972648	999.304163418831	1422.939604495966	606.786847206418	985.692764455500	1478.024137539364	426.116123385041	1017.675105765648	923.019886926491	570.499855332190	1002.865779455557	948.736203147705	294.871804223165	1086.772810004303	752.476352953510	543.149227794395	1039.495764317405	628.656496465357	614.022392841811	1129.991899454996	593.367906698440	535.160857722045	1161.518399426470	511.868793471648	549.011706644494	993.184611228071	721.469017585623	318.855392773686	865.578025132472	635.099974904615	263.119352088331	922.732478820904	536.445384616182	322.008733206124	904.601366048274	470.111359532474	331.579565851973	866.518181451900	407.226435428328	326.123297725456	755.470688244395	309.104930867131	281.643207970872	792.242150788959	191.009674691659	351.887914155251	1148.649714429223	422.789056539663	557.908532844318	1096.919903960352	305.870453110712	615.610536498044	1170.798730834083	223.839174563183	564.340815209895	1083.455069247406	40.667313518857	532.188781117663	1246.523992552876	112.448810367429	572.079965320225	1167.299852524155	39.344173676992	605.108180787906	1370.092752397464	74.190885165433	598.163070076780	648.446837955959	43.959739011385	401.667669175015	721.508722599095	36.541408839338	321.093474017014	806.564441836742	96.186929387316	344.796464449403	933.427342992064	39.720136579195	316.497192955117	1068.263878610495	1111.857133472261	106.947040031694	1315.906524639292	1096.493025163256	164.082853211473	821.342052829560	1137.889025162288	727.874619890934	745.324056030586	890.224092027308	757.711056594727	
